# xmcd CD database file
#
# Track frame offsets:
#	150
#	13205
#	36305
#	59230
#	73702
#	96054
#	123692
#	151422
#	169340
#	185840
#	214692
#
# Disc length: 3156 seconds
#
# Revision: 0
# Processed by: cddbd v1.5.2PL0 Copyright (c) Steve Scherf et al.
# Submitted via: CDex 1.70beta2
#
DISCID=ab0c520b
DTITLE=Emanuel Sayles With Barry Martin's Band - Dancing (Z06)
DYEAR=1069
DGENRE=Jazz
TTITLE0=Astoria Strut
TTITLE1=Sister Kate
TTITLE2=Sweet Georgia Brown
TTITLE3=Station Calls
TTITLE4=Jambalaya
TTITLE5=A Good Man Is Hard To Find
TTITLE6=Ting A Ling
TTITLE7=Up A Lazy River
TTITLE8=Baby Face
TTITLE9=None Of My Jelly Roll
TTITLE10=Bye Bye Blues
EXTD=YEAR: 1069
EXTT0=
EXTT1=
EXTT2=
EXTT3=
EXTT4=
EXTT5=
EXTT6=
EXTT7=
EXTT8=
EXTT9=
EXTT10=
PLAYORDER=
